#!OML:ASF H:\Dans Jumps\Project 1\Capture day 1\Session 1\subject.ASF
:FULLY-SPECIFIED
:DEGREES
389
root 0.24352 17.308 -6.56635 8.60673 -0.112719 -0.887349
lowerback 4.34309 0.351958 -0.872528
upperback 5.53215 0.423488 1.22616
thorax 3.24853 0.153335 1.74586
lowerneck -12.6249 -0.108203 -1.30587
upperneck 33.2351 -0.180445 1.12965
head 13.2535 -0.0900983 0.646916
rclavicle 1.09332e-015 -4.17448e-015
rhumerus -47.1982 -25.5643 -59.3776
rradius 21.8185
rwrist 40.948
rhand -19.3367 -22.1313
rfingers 7.12502
rthumb 6.98014 -51.9963
lclavicle 1.09332e-015 -4.17448e-015
lhumerus -39.0753 4.05179 77.3743
lradius 19.7123
lwrist 14.2702
lhand -27.9482 -6.98094
lfingers 7.12502
lthumb -1.33585 22.9946
rfemur -23.3898 -3.22295 19.0552
rtibia 35.8817
rfoot -19.5533 -1.35852
rtoes 6.68543
lfemur -22.4557 5.89176 -19.1738
ltibia 33.0682
lfoot -16.0345 9.14342
ltoes 1.35168
390
root 0.241422 17.3085 -6.56176 8.58816 -0.121288 -0.883688
lowerback 4.32087 0.350368 -0.861669
upperback 5.5239 0.421646 1.22786
thorax 3.25247 0.152793 1.74165
lowerneck -12.6098 -0.102412 -1.30462
upperneck 33.2714 -0.169069 1.11874
head 13.2656 -0.0865233 0.644327
rclavicle -1.19271e-015 -4.57205e-015
rhumerus -46.9472 -25.533 -59.6626
rradius 21.8858
rwrist 40.7223
rhand -19.414 -22.1134
rfingers 7.12502
rthumb 6.90554 -51.9807
lclavicle -1.19271e-015 -4.57205e-015
lhumerus -38.9299 3.94953 77.5772
lradius 19.8044
lwrist 14.4043
lhand -27.9196 -6.9731
lfingers 7.12502
lthumb -1.30825 23.0026
rfemur -23.3387 -3.21019 19.0557
rtibia 35.8582
rfoot -19.5622 -1.3603
rtoes 6.69684
lfemur -22.3979 5.89332 -19.1662
ltibia 33.0361
lfoot -16.0383 9.1527
ltoes 1.35726
391
root 0.23918 17.3092 -6.55675 8.5624 -0.123897 -0.882501
lowerback 4.30908 0.341461 -0.849835
upperback 5.51824 0.410013 1.23057
thorax 3.25364 0.14738 1.73802
lowerneck -12.6109 -0.0948319 -1.31177
upperneck 33.317 -0.154659 1.11343
head 13.2853 -0.0820105 0.64595
rclavicle -5.56597e-015 -1.59028e-015
rhumerus -46.6869 -25.474 -59.9659
rradius 21.954
rwrist 40.4851
rhand -19.5013 -22.072
rfingers 7.12502
rthumb 6.82124 -51.9422
lclavicle -5.56597e-015 -1.59028e-015
lhumerus -38.7897 3.88295 77.7547
lradius 19.8857
lwrist 14.4908
lhand -27.8508 -7.1059
lfingers 7.12502
lthumb -1.2418 22.8702
rfemur -23.2761 -3.19662 19.0598
rtibia 35.8328
rfoot -19.5704 -1.36949
rtoes 6.7042
lfemur -22.3305 5.89432 -19.1535
ltibia 33.0026
lfoot -16.0462 9.15585
ltoes 1.37518
392
root 0.236954 17.31 -6.55185 8.53888 -0.12359 -0.883055
lowerback 4.29351 0.331342 -0.835518
upperback 5.51282 0.396833 1.23287
thorax 3.25725 0.141276 1.73261
lowerneck -12.6207 -0.0872415 -1.31054
upperneck 33.3714 -0.140102 1.10117
head 13.3108 -0.0773189 0.643476
rclavicle 5.86415e-015 4.37326e-015
rhumerus -46.4288 -25.4078 -60.274
rradius 22.0307
rwrist 40.2243
rhand -19.5287 -22.0577
rfingers 7.12502
rthumb 6.79484 -51.9287
lclavicle 5.86415e-015 4.37326e-015
lhumerus -38.6482 3.82318 77.9233
lradius 19.9662
lwrist 14.5561
lhand -27.7766 -7.22909
lfingers 7.12502
lthumb -1.17011 22.7474
rfemur -23.2164 -3.1826 19.0663
rtibia 35.8067
rfoot -19.5753 -1.38291
rtoes 6.7038
lfemur -22.2666 5.89324 -19.1392
ltibia 32.9674
lfoot -16.0517 9.15761
ltoes 1.39166
393
root 0.234769 17.3109 -6.54699 8.51634 -0.120683 -0.883203
lowerback 4.27557 0.319835 -0.821228
upperback 5.50742 0.381803 1.23554
thorax 3.26226 0.134229 1.72764
lowerneck -12.6314 -0.0787506 -1.30666
upperneck 33.4285 -0.123515 1.08471
head 13.3376 -0.07198 0.639199
rclavicle 4.87022e-015 1.0138e-014
rhumerus -46.1786 -25.3158 -60.5913
rradius 22.1197
rwrist 39.9594
rhand -19.5402 -22.0376
rfingers 7.12502
rthumb 6.78368 -51.9089
lclavicle 4.87022e-015 1.0138e-014
lhumerus -38.5088 3.77192 78.0844
lradius 20.0422
lwrist 14.6127
lhand -27.6983 -7.36621
lfingers 7.12502
lthumb -1.09456 22.6107
rfemur -23.1577 -3.16832 19.0725
rtibia 35.78
rfoot -19.5786 -1.39917
rtoes 6.70231
lfemur -22.2039 5.8924 -19.1258
ltibia 32.9299
lfoot -16.0548 9.15744
ltoes 1.39972
394
root 0.232701 17.3118 -6.54224 8.4951 -0.117261 -0.879156
lowerback 4.25169 0.309643 -0.810022
upperback 5.50269 0.368487 1.23776
thorax 3.27122 0.127904 1.72395
lowerneck -12.6377 -0.0721286 -1.29965
upperneck 33.4859 -0.109 1.06381
head 13.3636 -0.0677246 0.632309
rclavicle 1.98785e-015 3.77691e-015
rhumerus -45.9435 -25.2259 -60.8928
rradius 22.2072
rwrist 39.7249
rhand -19.5527 -22.0042
rfingers 7.12502
rthumb 6.77165 -51.8759
lclavicle 1.98785e-015 3.77691e-015
lhumerus -38.3676 3.72043 78.2446
lradius 20.1136
lwrist 14.6733
lhand -27.6285 -7.4566
lfingers 7.12502
lthumb -1.02712 22.5207
rfemur -23.1021 -3.15699 19.0738
rtibia 35.7543
rfoot -19.5807 -1.41364
rtoes 6.6979
lfemur -22.1425 5.89111 -19.1183
ltibia 32.8901
lfoot -16.0563 9.15684
ltoes 1.40349
395
root 0.230722 17.3127 -6.53771 8.47841 -0.115237 -0.873229
lowerback 4.21759 0.302609 -0.800464
upperback 5.49809 0.359367 1.23984
thorax 3.28589 0.123578 1.72103
lowerneck -12.644 -0.0654761 -1.27927
upperneck 33.548 -0.094006 1.03107
head 13.3918 -0.0631165 0.618503
rclavicle 4.37326e-015 1.11319e-014
rhumerus -45.7239 -25.1397 -61.1797
rradius 22.2966
rwrist 39.5043
rhand -19.5438 -21.9868
rfingers 7.12502
rthumb 6.78022 -51.8582
lclavicle 4.37326e-015 1.11319e-014
lhumerus -38.2256 3.66399 78.4063
lradius 20.1836
lwrist 14.7418
lhand -27.5845 -7.46935
lfingers 7.12502
lthumb -0.984578 22.5081
rfemur -23.053 -3.14492 19.0723
rtibia 35.7291
rfoot -19.5821 -1.42497
rtoes 6.70656
lfemur -22.0862 5.89124 -19.1146
ltibia 32.8473
lfoot -16.0522 9.15814
ltoes 1.39597
396
root 0.228877 17.3137 -6.53329 8.46408 -0.111563 -0.862263
lowerback 4.17819 0.297657 -0.794037
upperback 5.49291 0.353001 1.24094
thorax 3.30281 0.120524 1.71884
lowerneck -12.6529 -0.05881 -1.25096
upperneck 33.6187 -0.0792719 0.993056
head 13.4243 -0.0583004 0.601233
rclavicle -2.28602e-015 -3.18055e-015
rhumerus -45.5251 -25.0633 -61.4429
rradius 22.377
rwrist 39.3274
rhand -19.5509 -21.9568
rfingers 7.12502
rthumb 6.77337 -51.8284
lclavicle -2.28602e-015 -3.18055e-015
lhumerus -38.0867 3.59859 78.5702
lradius 20.2538
lwrist 14.8198
lhand -27.5632 -7.4142
lfingers 7.12502
lthumb -0.964068 22.5634
rfemur -23.0065 -3.13881 19.0648
rtibia 35.7043
rfoot -19.5842 -1.42932
rtoes 6.72876
lfemur -22.0313 5.89057 -19.1178
ltibia 32.8011
lfoot -16.0436 9.15995
ltoes 1.37708
397
root 0.227095 17.3148 -6.52876 8.45079 -0.10705 -0.846348
lowerback 4.13531 0.293406 -0.791989
upperback 5.48833 0.347518 1.24115
thorax 3.32228 0.117751 1.7182
lowerneck -12.6644 -0.0515346 -1.22422
upperneck 33.6952 -0.0639004 0.957318
head 13.46 -0.0531052 0.585256
rclavicle -2.08724e-015 -2.98177e-015
rhumerus -45.34 -25.0192 -61.6709
rradius 22.4372
rwrist 39.1957
rhand -19.5618 -21.9118
rfingers 7.12502
rthumb 6.76279 -51.7838
lclavicle -2.08724e-015 -2.98177e-015
lhumerus -37.9528 3.52821 78.7338
lradius 20.3259
lwrist 14.9023
lhand -27.5651 -7.33414
lfingers 7.12502
lthumb -0.965892 22.6434
rfemur -22.9591 -3.13621 19.0513
rtibia 35.6776
rfoot -19.5879 -1.42983
rtoes 6.75343
lfemur -21.9744 5.88917 -19.1271
ltibia 32.7507
lfoot -16.0329 9.16141
ltoes 1.35333
398
root 0.225303 17.316 -6.52424 8.43941 -0.100285 -0.828207
lowerback 4.09066 0.290083 -0.791686
upperback 5.48301 0.343272 1.24055
thorax 3.34192 0.115554 1.7177
lowerneck -12.6707 -0.0440299 -1.20187
upperneck 33.7727 -0.0493564 0.928594
head 13.4951 -0.047894 0.572678
rclavicle -3.37934e-015 -9.34288e-015
rhumerus -45.1716 -24.9968 -61.8736
rradius 22.4901
rwrist 39.0765
rhand -19.5515 -21.8686
rfingers 7.12502
rthumb 6.77276 -51.7402
lclavicle -3.37934e-015 -9.34288e-015
lhumerus -37.8245 3.44359 78.899
lradius 20.3997
lwrist 14.9916
lhand -27.5857 -7.22199
lfingers 7.12502
lthumb -0.985752 22.7555
rfemur -22.9118 -3.13775 19.0356
rtibia 35.6485
rfoot -19.5919 -1.42911
rtoes 6.77222
lfemur -21.9169 5.88672 -19.1388
ltibia 32.6958
lfoot -16.0201 9.16054
ltoes 1.33291
399
root 0.223367 17.3173 -6.51922 8.42067 -0.0904925 -0.810164
lowerback 4.05738 0.283003 -0.791869
upperback 5.4795 0.333973 1.24025
thorax 3.35725 0.11083 1.71777
lowerneck -12.6703 -0.0358599 -1.20006
upperneck 33.8433 -0.0343162 0.917557
head 13.5257 -0.0427703 0.570713
rclavicle -1.39149e-015 -6.95746e-015
rhumerus -45.0102 -24.9789 -62.0634
rradius 22.5335
rwrist 38.9682
rhand -19.5629 -21.7938
rfingers 7.12502
rthumb 6.76176 -51.6659
lclavicle -1.39149e-015 -6.95746e-015
lhumerus -37.709 3.37008 79.0503
lradius 20.4703
lwrist 15.0738
lhand -27.5911 -7.22509
lfingers 7.12502
lthumb -0.991013 22.7524
rfemur -22.851 -3.13876 19.0205
rtibia 35.6161
rfoot -19.5993 -1.43362
rtoes 6.78444
lfemur -21.8469 5.88596 -19.1482
ltibia 32.6373
lfoot -16.0101 9.15382
ltoes 1.32114
400
root 0.221321 17.3187 -6.51414 8.40141 -0.0781717 -0.79054
lowerback 4.02637 0.274786 -0.793104
upperback 5.4761 0.32319 1.23799
thorax 3.37149 0.105376 1.7164
lowerneck -12.6536 -0.0286075 -1.20738
upperneck 33.9018 -0.0221105 0.917755
head 13.5476 -0.0385582 0.574267
rclavicle -1.98785e-016 2.38542e-015
rhumerus -44.8561 -24.9715 -62.2464
rradius 22.5831
rwrist 38.8235
rhand -19.5129 -21.7602
rfingers 7.12502
rthumb 6.8101 -51.6307
lclavicle -1.98785e-016 2.38542e-015
lhumerus -37.6031 3.28962 79.1954
lradius 20.5481
lwrist 15.1562
lhand -27.6039 -7.23497
lfingers 7.12502
lthumb -1.00337 22.7424
rfemur -22.7877 -3.14116 19.0041
rtibia 35.5815
rfoot -19.6073 -1.44108
rtoes 6.79036
lfemur -21.7749 5.88412 -19.1584
ltibia 32.577
lfoot -16.0022 9.14216
ltoes 1.32394
401
root 0.219185 17.3201 -6.50903 8.38168 -0.0647228 -0.772786
lowerback 3.99832 0.26604 -0.792655
upperback 5.47205 0.311727 1.23566
thorax 3.38342 0.099668 1.714
lowerneck -12.6295 -0.0217769 -1.21724
upperneck 33.9561 -0.010615 0.920025
head 13.5659 -0.034711 0.578941
rclavicle 4.17448e-015 9.74045e-015
rhumerus -44.7103 -24.9366 -62.4445
rradius 22.6535
rwrist 38.6296
rhand -19.4278 -21.7772
rfingers 7.12502
rthumb 6.89217 -51.645
lclavicle 4.17448e-015 9.74045e-015
lhumerus -37.5088 3.20405 79.3356
lradius 20.6309
lwrist 15.2355
lhand -27.62 -7.25013
lfingers 7.12502
lthumb -1.01892 22.7272
rfemur -22.7231 -3.14214 18.9903
rtibia 35.5453
rfoot -19.6154 -1.45254
rtoes 6.79199
lfemur -21.702 5.88337 -19.1659
ltibia 32.5164
lfoot -15.9962 9.12697
ltoes 1.33122
402
root 0.216929 17.3215 -6.50404 8.36252 -0.0491534 -0.756484
lowerback 3.97415 0.256366 -0.790762
upperback 5.46672 0.299054 1.23313
thorax 3.39189 0.0934467 1.71055
lowerneck -12.5936 -0.0168723 -1.23356
upperneck 33.9997 -0.00270322 0.929284
head 13.5771 -0.032316 0.586892
rclavicle 2.48481e-015 1.98785e-016
rhumerus -44.5807 -24.8919 -62.6381
rradius 22.7245
rwrist 38.4672
rhand -19.3833 -21.7712
rfingers 7.12502
rthumb 6.93517 -51.6376
lclavicle 2.48481e-015 1.98785e-016
lhumerus -37.4232 3.11793 79.4674
lradius 20.7127
lwrist 15.3075
lhand -27.6341 -7.27368
lfingers 7.12502
lthumb -1.03251 22.7036
rfemur -22.6598 -3.14363 18.9789
rtibia 35.5094
rfoot -19.623 -1.46551
rtoes 6.79421
lfemur -21.6321 5.88231 -19.171
ltibia 32.4583
lfoot -15.9923 9.1082
ltoes 1.34033
